<?xml version="1.0" encoding="utf-8"?>
<!-- Generator: Adobe Illustrator 23.0.5, SVG Export Plug-In . SVG Version: 6.00 Build 0)  -->
<svg version="1.1" id="Слой_1" xmlns="http://www.w3.org/2000/svg" xmlns:xlink="http://www.w3.org/1999/xlink" x="0px" y="0px"
	 viewBox="0 0 12 12" enable-background="new 0 0 12 12" xml:space="preserve">
<path fill="#A0A3BD" d="M7.6,6.2l2.5-2.5c0.4-0.4,0.4-1,0-1.4c-0.4-0.4-1-0.4-1.4,0L6.2,4.8L3.7,2.3c-0.4-0.4-1-0.4-1.4,0
	s-0.4,1,0,1.4l2.5,2.5L2.3,8.7c-0.4,0.4-0.4,1,0,1.4c0.2,0.2,0.5,0.3,0.7,0.3s0.5-0.1,0.7-0.3l2.5-2.5l2.5,2.5
	c0.2,0.2,0.5,0.3,0.7,0.3s0.5-0.1,0.7-0.3c0.4-0.4,0.4-1,0-1.4L7.6,6.2z"/>
</svg>
