<svg width="20" height="18" viewBox="0 0 20 18" fill="none" xmlns="http://www.w3.org/2000/svg">
<path d="M7.94668e-08 5.39995C-0.000248434 3.95029 0.582385 2.5614 1.61681 1.54578C2.65124 0.530159 4.05058 -0.026895 5.5 -4.93311e-05C7.21732 -0.00916934 8.85599 0.719125 10 1.99995C11.144 0.719125 12.7827 -0.00916934 14.5 -4.93311e-05C15.9494 -0.026895 17.3488 0.530159 18.3832 1.54578C19.4176 2.5614 20.0002 3.95029 20 5.39995C20 10.756 13.621 14.8 10 18C6.387 14.773 7.94668e-08 10.76 7.94668e-08 5.39995Z" fill="url(#paint0_linear_2407_9949)"/>
<defs>
<linearGradient id="paint0_linear_2407_9949" x1="0" y1="-0.000976562" x2="23.1794" y2="11.7037" gradientUnits="userSpaceOnUse">
<stop stop-color="#ED017F"/>
<stop offset="1" stop-color="#7F33B5"/>
</linearGradient>
</defs>
</svg>
