<svg width="14" height="12" viewBox="0 0 14 12" fill="none" xmlns="http://www.w3.org/2000/svg">
<path d="M3.66732 7.33341C1.82637 7.33341 0.333984 5.84103 0.333984 4.00008C0.333984 2.15913 1.82637 0.666748 3.66732 0.666748C5.50827 0.666748 7.00065 2.15913 7.00065 4.00008C7.00065 5.84103 5.50827 7.33341 3.66732 7.33341ZM1.66732 4.66675H3.00066V6.00008H4.33399V4.66675H5.66732V3.33341L4.33399 3.33341V2.00008H3.00066V3.33341L1.66732 3.33341V4.66675Z" fill="#BB39BC"/>
<path d="M12.334 7.33342H6.93331C7.32389 6.95067 7.6475 6.49982 7.8849 6.00008L12.334 6.00008C13.0704 6.00008 13.6673 6.59704 13.6673 7.33342V10.0001C13.6673 10.7365 13.0704 11.3334 12.334 11.3334H1.66732C0.930939 11.3334 0.333984 10.7365 0.333984 10.0001V7.33342C0.333984 7.31138 0.33452 7.28947 0.335576 7.26769C0.717981 7.65755 1.16827 7.98059 1.66732 8.21766V10.0001H12.334V7.33342Z" fill="#BB39BC"/>
</svg>
