<svg width="14" height="14" viewBox="0 0 14 14" fill="none" xmlns="http://www.w3.org/2000/svg">
<path d="M10.6675 13.6666C9.94618 13.675 9.26245 13.3454 8.81971 12.7758C8.37696 12.2062 8.22618 11.4623 8.41221 10.7653L4.23887 8.37997C3.51773 9.04066 2.46066 9.1805 1.59253 8.73004C0.724403 8.27959 0.230124 7.33479 0.35512 6.36478C0.480115 5.39476 1.19776 4.60613 2.15173 4.39047C3.10569 4.17481 4.09278 4.57805 4.62287 5.39997L8.41154 3.23397C8.36252 3.04876 8.33655 2.85821 8.33421 2.66664C8.32465 1.55112 9.09941 0.582068 10.1897 0.345855C11.2799 0.109641 12.3863 0.671135 12.8393 1.69058C13.2923 2.71003 12.9675 3.90746 12.0615 4.55831C11.1555 5.20917 9.91705 5.1347 9.09554 4.37997L4.99487 6.72331C4.99081 6.89619 4.96665 7.06801 4.92287 7.23531L9.09554 9.61997C9.86372 8.915 11.0067 8.80618 11.8941 9.35353C12.7815 9.90087 13.1973 10.9711 12.9121 11.974C12.6269 12.9769 11.7102 13.6682 10.6675 13.6666ZM10.6675 10.3333C10.1153 10.3333 9.66754 10.781 9.66754 11.3333C9.66754 11.8856 10.1153 12.3333 10.6675 12.3333C11.2198 12.3333 11.6675 11.8856 11.6675 11.3333C11.6675 10.781 11.2198 10.3333 10.6675 10.3333ZM2.66754 5.66664C2.11526 5.66664 1.66754 6.11436 1.66754 6.66664C1.66754 7.21892 2.11526 7.66664 2.66754 7.66664C3.21983 7.66664 3.66754 7.21892 3.66754 6.66664C3.66754 6.11436 3.21983 5.66664 2.66754 5.66664ZM10.6675 1.66664C10.1153 1.66664 9.66754 2.11435 9.66754 2.66664C9.66754 3.21892 10.1153 3.66664 10.6675 3.66664C11.2198 3.66664 11.6675 3.21892 11.6675 2.66664C11.6675 2.11435 11.2198 1.66664 10.6675 1.66664Z" fill="#BB39BC"/>
</svg>
