<svg width="19" height="17" viewBox="0 0 19 17" fill="none" xmlns="http://www.w3.org/2000/svg">
<path fill-rule="evenodd" clip-rule="evenodd" d="M7.49985 1C8.29548 1 9.05853 1.31606 9.62112 1.87866C10.1837 2.44126 10.4998 3.2043 10.4998 3.99993V5.99989C10.4998 6.39385 10.4222 6.78395 10.2714 7.14792C10.1207 7.51189 9.89969 7.8426 9.62112 8.12117C9.34255 8.39974 9.01184 8.62071 8.64787 8.77147C8.28391 8.92223 7.89381 8.99983 7.49985 8.99983C7.10589 8.99983 6.71579 8.92223 6.35182 8.77147C5.98785 8.62071 5.65714 8.39974 5.37857 8.12117C5.1 7.8426 4.87903 7.51189 4.72827 7.14792C4.57751 6.78395 4.49991 6.39385 4.49991 5.99989V3.99993C4.49991 3.2043 4.81598 2.44126 5.37857 1.87866C5.94117 1.31606 6.70422 1 7.49985 1V1ZM14.4997 14.9997V14.2717C14.4997 11.0848 10.8138 8.99983 7.49985 8.99983C4.18592 8.99983 0.5 11.0848 0.5 14.2717V14.9997C0.5 15.2649 0.605355 15.5193 0.792887 15.7068C0.980419 15.8943 1.23477 15.9997 1.49998 15.9997H13.4997C13.7649 15.9997 14.0193 15.8943 14.2068 15.7068C14.3943 15.5193 14.4997 15.2649 14.4997 14.9997Z" stroke="white" stroke-linecap="round" stroke-linejoin="round"/>
<path fill-rule="evenodd" clip-rule="evenodd" d="M11.52 1.17798C12.1 1.38784 12.6013 1.77134 12.9556 2.27629C13.3099 2.78123 13.5 3.38308 13.5 3.99992V4.9999C13.5 6.29687 12.652 7.58084 11.5 7.99983C12.174 7.08085 12.51 5.91388 12.51 4.49991C12.51 3.08594 12.179 1.97696 11.52 1.17798ZM16.4999 15.9997H17.4999C17.7651 15.9997 18.0194 15.8943 18.207 15.7068C18.3945 15.5192 18.4998 15.2649 18.4998 14.9997V14.2717C18.4998 12.1017 16.7899 10.4418 14.6529 9.6048C14.6529 9.6048 17.4999 11.9997 16.4999 15.9997Z" fill="white" stroke="white" stroke-linecap="round" stroke-linejoin="round"/>
</svg>
