<svg width="21" height="20" viewBox="0 0 21 20" fill="none" xmlns="http://www.w3.org/2000/svg">
<path d="M10.5003 12.5C8.96699 12.5 8.83366 11.7833 8.83366 11.6667H7.16699C7.16699 12.4333 7.71699 13.7917 9.66699 14.1V15H11.3337V14.1C13.0003 13.8167 13.8337 12.7417 13.8337 11.6667C13.8337 10.7333 13.4003 9.16667 10.5003 9.16667C8.83366 9.16667 8.83366 8.64167 8.83366 8.33333C8.83366 8.025 9.41699 7.5 10.5003 7.5C11.5837 7.5 11.6587 8.03333 11.667 8.33333H13.3337C13.3224 7.76563 13.1182 7.21867 12.7547 6.78246C12.3912 6.34625 11.89 6.04678 11.3337 5.93333V5H9.66699V5.90833C8.00033 6.18333 7.16699 7.25833 7.16699 8.33333C7.16699 9.26667 7.60033 10.8333 10.5003 10.8333C12.167 10.8333 12.167 11.4 12.167 11.6667C12.167 11.9333 11.6503 12.5 10.5003 12.5Z" fill="white"/>
<path d="M4.66699 1.66675H2.16699V3.33341H3.83366V17.5001C3.83366 17.7211 3.92146 17.9331 4.07774 18.0893C4.23402 18.2456 4.44598 18.3334 4.66699 18.3334H16.3337C16.5547 18.3334 16.7666 18.2456 16.9229 18.0893C17.0792 17.9331 17.167 17.7211 17.167 17.5001V3.33341H18.8337V1.66675H4.66699ZM15.5003 16.6667H5.50033V3.33341H15.5003V16.6667Z" fill="white"/>
</svg>
