<svg width="17" height="19" viewBox="0 0 17 19" fill="none" xmlns="http://www.w3.org/2000/svg">
<path d="M3.4 14.1667V15.8667C3.4 16.4917 2.8917 17 2.26667 17C1.64163 17 1.13333 16.4917 1.13333 15.8667V1.13333H9.06667V0H0.566667C0.253867 0 0 0.253867 0 0.566667V15.8667C0 17.1167 1.0166 18.1333 2.26667 18.1333H14.1667C15.4167 18.1333 16.4333 17.1167 16.4333 15.8667V14.1667H3.4Z" fill="#FCFCFC"/>
<path d="M13.0335 9.06657C11.9858 9.06657 11.0111 8.7481 10.2002 8.2041V12.8168L13.0335 11.4001L15.8669 12.8168V8.2041C15.056 8.7481 14.0813 9.06657 13.0335 9.06657Z" fill="#FCFCFC"/>
<circle cx="13.0331" cy="3.96667" r="3.96667" fill="#FCFCFC"/>
</svg>
