<svg width="21" height="20" viewBox="0 0 21 20" fill="none" xmlns="http://www.w3.org/2000/svg">
<path d="M4.625 0C3.7962 0 3.00134 0.32924 2.41529 0.915291C1.82924 1.50134 1.5 2.2962 1.5 3.125V14.375C1.5 15.2038 1.82924 15.9987 2.41529 16.5847C3.00134 17.1708 3.7962 17.5 4.625 17.5H13.375C14.2038 17.5 14.9987 17.1708 15.5847 16.5847C16.1708 15.9987 16.5 15.2038 16.5 14.375V3.125C16.5 2.2962 16.1708 1.50134 15.5847 0.915291C14.9987 0.32924 14.2038 0 13.375 0H4.625ZM4 3.75C4 3.41848 4.1317 3.10054 4.36612 2.86612C4.60054 2.6317 4.91848 2.5 5.25 2.5H12.75C13.0815 2.5 13.3995 2.6317 13.6339 2.86612C13.8683 3.10054 14 3.41848 14 3.75V6.25C14 6.58152 13.8683 6.89946 13.6339 7.13388C13.3995 7.3683 13.0815 7.5 12.75 7.5H5.25C4.91848 7.5 4.60054 7.3683 4.36612 7.13388C4.1317 6.89946 4 6.58152 4 6.25V3.75ZM4 10C4 9.66848 4.1317 9.35054 4.36612 9.11612C4.60054 8.8817 4.91848 8.75 5.25 8.75C5.58152 8.75 5.89946 8.8817 6.13388 9.11612C6.3683 9.35054 6.5 9.66848 6.5 10C6.5 10.3315 6.3683 10.6495 6.13388 10.8839C5.89946 11.1183 5.58152 11.25 5.25 11.25C4.91848 11.25 4.60054 11.1183 4.36612 10.8839C4.1317 10.6495 4 10.3315 4 10ZM9 8.75C9.33152 8.75 9.64946 8.8817 9.88388 9.11612C10.1183 9.35054 10.25 9.66848 10.25 10C10.25 10.3315 10.1183 10.6495 9.88388 10.8839C9.64946 11.1183 9.33152 11.25 9 11.25C8.66848 11.25 8.35054 11.1183 8.11612 10.8839C7.8817 10.6495 7.75 10.3315 7.75 10C7.75 9.66848 7.8817 9.35054 8.11612 9.11612C8.35054 8.8817 8.66848 8.75 9 8.75ZM9 12.1875C9.33152 12.1875 9.64946 12.3192 9.88388 12.5536C10.1183 12.788 10.25 13.106 10.25 13.4375C10.25 13.769 10.1183 14.087 9.88388 14.3214C9.64946 14.5558 9.33152 14.6875 9 14.6875C8.66848 14.6875 8.35054 14.5558 8.11612 14.3214C7.8817 14.087 7.75 13.769 7.75 13.4375C7.75 13.106 7.8817 12.788 8.11612 12.5536C8.35054 12.3192 8.66848 12.1875 9 12.1875ZM11.5 10C11.5 9.66848 11.6317 9.35054 11.8661 9.11612C12.1005 8.8817 12.4185 8.75 12.75 8.75C13.0815 8.75 13.3995 8.8817 13.6339 9.11612C13.8683 9.35054 14 9.66848 14 10C14 10.3315 13.8683 10.6495 13.6339 10.8839C13.3995 11.1183 13.0815 11.25 12.75 11.25C12.4185 11.25 12.1005 11.1183 11.8661 10.8839C11.6317 10.6495 11.5 10.3315 11.5 10ZM12.75 12.1875C13.0815 12.1875 13.3995 12.3192 13.6339 12.5536C13.8683 12.788 14 13.106 14 13.4375C14 13.769 13.8683 14.087 13.6339 14.3214C13.3995 14.5558 13.0815 14.6875 12.75 14.6875C12.4185 14.6875 12.1005 14.5558 11.8661 14.3214C11.6317 14.087 11.5 13.769 11.5 13.4375C11.5 13.106 11.6317 12.788 11.8661 12.5536C12.1005 12.3192 12.4185 12.1875 12.75 12.1875ZM5.25 12.1875C5.58152 12.1875 5.89946 12.3192 6.13388 12.5536C6.3683 12.788 6.5 13.106 6.5 13.4375C6.5 13.769 6.3683 14.087 6.13388 14.3214C5.89946 14.5558 5.58152 14.6875 5.25 14.6875C4.91848 14.6875 4.60054 14.5558 4.36612 14.3214C4.1317 14.087 4 13.769 4 13.4375C4 13.106 4.1317 12.788 4.36612 12.5536C4.60054 12.3192 4.91848 12.1875 5.25 12.1875ZM7.125 20C6.63979 20.0004 6.16118 19.8876 5.72719 19.6706C5.29321 19.4536 4.91581 19.1384 4.625 18.75H13.375C14.5353 18.75 15.6481 18.2891 16.4686 17.4686C17.2891 16.6481 17.75 15.5353 17.75 14.375V3.125C18.5088 3.695 19 4.6025 19 5.625V14.375C19 15.8668 18.4074 17.2976 17.3525 18.3525C16.2976 19.4074 14.8668 20 13.375 20H7.125Z" fill="white"/>
</svg>
