<svg width="20" height="20" viewBox="0 0 20 20" fill="none" xmlns="http://www.w3.org/2000/svg">
<path d="M15.8337 18.4515C13.9916 18.4515 12.5241 18.0965 11.667 17.5V18.4515C11.667 19.3342 13.4582 20 15.8337 20C18.2091 20 20.0003 19.3342 20.0003 18.4515V17.5C19.1432 18.0965 17.6757 18.4515 15.8337 18.4515Z" fill="#FCFCFC"/>
<path d="M15.8337 15.9515C13.9916 15.9515 12.5241 15.5965 11.667 15V15.9515C11.667 16.8342 13.4582 17.5 15.8337 17.5C18.2091 17.5 20.0003 16.8342 20.0003 15.9515V15C19.1432 15.5965 17.6757 15.9515 15.8337 15.9515Z" fill="#FCFCFC"/>
<path d="M15.8337 13.4515C13.9916 13.4515 12.5241 13.0965 11.667 12.5V13.4515C11.667 14.3342 13.4582 15 15.8337 15C18.2091 15 20.0003 14.3342 20.0003 13.4515V12.5C19.1432 13.0965 17.6757 13.4515 15.8337 13.4515Z" fill="#FCFCFC"/>
<path d="M15.8337 9.16675C13.4582 9.16675 11.667 9.88341 11.667 10.8334C11.667 11.7834 13.4582 12.5001 15.8337 12.5001C18.2091 12.5001 20.0003 11.7834 20.0003 10.8334C20.0003 9.88341 18.2091 9.16675 15.8337 9.16675Z" fill="#FCFCFC"/>
<path fill-rule="evenodd" clip-rule="evenodd" d="M15.7143 8C12.581 8 10.4762 9.07156 10.4762 10.6667V13.3333H0.436508C0.195556 13.3333 0 13.1342 0 12.8889V0.444444C0 0.199111 0.195556 0 0.436508 0H17.8968C18.1378 0 18.3333 0.199111 18.3333 0.444444V7.47644V8.30178C17.5843 8.10667 16.7008 8 15.7143 8ZM9.16667 4.88889C8.20242 4.88889 7.42063 5.68489 7.42063 6.66667C7.42063 7.64844 8.20242 8.44444 9.16667 8.44444C10.1309 8.44444 10.9127 7.64844 10.9127 6.66667C10.9127 5.68489 10.1309 4.88889 9.16667 4.88889Z" fill="#FCFCFC"/>
</svg>
