<svg width="21" height="20" viewBox="0 0 21 20" fill="none" xmlns="http://www.w3.org/2000/svg">
<g clip-path="url(#clip0_2777_21990)">
<path d="M10.4868 1C9.2294 1 8.11064 1.79204 7.69481 2.98011H1.57628V4.96022H3.50688L0.586224 11.8906C0.120898 13.8707 1.57628 14.8608 4.05141 14.8608C6.52655 14.8608 8.07103 13.8707 7.5166 11.8906L4.59594 4.96022H7.68491C8.01163 5.80176 8.65517 6.4453 9.49671 6.77202V17.8309H0.586224V19.811H20.3873V17.8309H11.4768V6.76212C12.3184 6.4453 12.9619 5.80176 13.2787 4.96022H16.3776L13.4569 11.8906C12.9916 13.8707 14.447 14.8608 16.9221 14.8608C19.3973 14.8608 20.9417 13.8707 20.3873 11.8906L17.4666 4.96022H19.3973V2.98011H13.2886C12.8629 1.79204 11.7441 1 10.4868 1ZM10.4868 2.98011C10.7493 2.98011 11.0012 3.08442 11.1868 3.27009C11.3725 3.45576 11.4768 3.70758 11.4768 3.97016C11.4768 4.23274 11.3725 4.48457 11.1868 4.67024C11.0012 4.85591 10.7493 4.96022 10.4868 4.96022C10.2242 4.96022 9.97236 4.85591 9.78669 4.67024C9.60102 4.48457 9.49671 4.23274 9.49671 3.97016C9.49671 3.70758 9.60102 3.45576 9.78669 3.27009C9.97236 3.08442 10.2242 2.98011 10.4868 2.98011ZM4.05141 8.17789L5.53649 11.8906H2.56633L4.05141 8.17789ZM16.9221 8.17789L18.4072 11.8906H15.437L16.9221 8.17789Z" fill="white"/>
</g>
<defs>
<clipPath id="clip0_2777_21990">
<rect width="20" height="20" fill="white" transform="translate(0.5)"/>
</clipPath>
</defs>
</svg>
