<svg width="14" height="16" viewBox="0 0 14 16" fill="none" xmlns="http://www.w3.org/2000/svg">
<path d="M0 0H2V2.55709C3.19001 1.622 4.6906 1.0643 6.32144 1.0643C10.1874 1.0643 13.3214 4.19831 13.3214 8.0643C13.3214 11.9303 10.1874 15.0643 6.32144 15.0643C4.17096 15.0643 2.24696 14.0946 0.962891 12.5685L2.58221 11.3837C3.49811 12.4147 4.83392 13.0643 6.32144 13.0643C9.08287 13.0643 11.3214 10.8257 11.3214 8.0643C11.3214 5.30288 9.08287 3.0643 6.32144 3.0643C5.2346 3.0643 4.22875 3.41107 3.4085 4L6 4V6H0V0Z" fill="#FCFCFC"/>
</svg>
