<svg width="21" height="21" viewBox="0 0 21 21" fill="none" xmlns="http://www.w3.org/2000/svg">
<path d="M8.75005 20H2.91705C1.76655 19.9989 0.834154 19.0665 0.833052 17.916V8.21603C0.0162635 7.63641 -0.238045 6.53756 0.241052 5.65803C1.14105 4.05003 2.05905 2.46503 2.96205 0.946034C3.32422 0.353033 3.97123 -0.00616617 4.66605 -4.50717e-05C5.08957 0.00425762 5.50154 0.13867 5.84605 0.385034L5.87005 0.400034C6.28205 0.640034 10.2621 3.00903 13.4611 4.91203L16.3001 6.60003L16.4301 6.67703C18.6481 7.98803 19.1471 8.28603 19.1751 8.30503C19.9916 8.88314 20.2427 9.98281 19.7581 10.858C18.8751 12.435 17.9581 14.02 17.0371 15.57C16.6796 16.1566 16.044 16.5164 15.3571 16.521C15.2225 16.5211 15.0883 16.506 14.9571 16.476C14.8411 16.545 14.2011 16.956 13.3901 17.476C11.9471 18.401 9.97505 19.666 9.74705 19.783C9.43943 19.9414 9.09565 20.0162 8.75005 20ZM2.50005 11.03V17.916C2.50005 18.1463 2.68675 18.333 2.91705 18.333H6.74005C5.28705 15.88 3.86105 13.422 2.50005 11.03ZM3.85805 10.03C4.25805 10.717 8.57405 18.162 8.61005 18.212C8.6669 18.2859 8.75485 18.3291 8.84805 18.329C8.89721 18.329 8.94563 18.3171 8.98905 18.294C9.12405 18.218 13.1831 15.61 13.2231 15.584C12.9091 15.399 10.6371 14.045 8.23105 12.612L3.83805 10L3.84505 10.011L3.85505 10.028V10.034L3.85805 10.03ZM4.33205 1.90003C3.52405 3.20003 1.71605 6.42803 1.69205 6.48703C1.63276 6.62868 1.68536 6.79241 1.81605 6.87303C1.94905 6.95203 15.1701 14.829 15.2961 14.849C15.312 14.8502 15.3281 14.8502 15.3441 14.849C15.4527 14.8494 15.5536 14.7929 15.6101 14.7C16.4241 13.333 18.2991 10.043 18.3041 10.033C18.362 9.8908 18.3092 9.72752 18.1791 9.64603C18.0521 9.57003 4.85605 1.72803 4.77105 1.69103C4.73242 1.67477 4.69097 1.66627 4.64905 1.66603C4.54374 1.66661 4.44574 1.71993 4.38805 1.80803L4.38105 1.82003L4.37305 1.83203L4.36105 1.85203V1.85703L4.34605 1.88103L4.33105 1.90003H4.33205ZM5.68505 7.39003C4.7656 7.38948 4.02042 6.64415 4.02006 5.7247C4.01969 4.80524 4.76427 4.05932 5.68372 4.05803C6.60318 4.05675 7.34984 4.80058 7.35205 5.72003C7.35095 6.64024 6.60525 7.38593 5.68505 7.38703V7.39003Z" fill="#FCFCFC"/>
</svg>
