<svg width="20" height="20" viewBox="0 0 20 20" fill="none" xmlns="http://www.w3.org/2000/svg">
<path d="M16.5463 10.3832L15.292 8.78446C15.2257 8.70192 15.1397 8.63743 15.042 8.59696L13.2376 7.83321C13.1245 7.78593 13.0001 7.77247 12.8795 7.79446L10.7445 8.19196C10.5304 8.23191 10.3526 8.38037 10.2751 8.58384L9.53508 10.5301C9.487 10.6563 9.48108 10.7946 9.51821 10.9245L9.97258 12.5001L9.25571 14.1051C9.18005 14.2741 9.18325 14.468 9.26446 14.6345L10.1432 16.4376C10.2482 16.6525 10.4666 16.7886 10.7057 16.7882C10.7488 16.7885 10.7917 16.7841 10.8338 16.7751L12.4782 16.432C12.5689 16.4137 12.6544 16.3753 12.7282 16.3195L13.9901 15.3682C14.0236 15.343 14.0544 15.3143 14.082 15.2826L15.1182 14.1107L16.312 12.8963C16.4098 12.7966 16.4714 12.667 16.487 12.5282L16.6782 10.8407C16.6963 10.6768 16.6489 10.5123 16.5463 10.3832V10.3832Z" fill="#FCFCFC"/>
<path fill-rule="evenodd" clip-rule="evenodd" d="M0 10C0 4.47715 4.47715 0 10 0C15.5201 0.00654351 19.9935 4.47987 20 10C20 15.5228 15.5228 20 10 20C4.47715 20 0 15.5228 0 10ZM4.57625 16.8531C6.11717 18.0814 8.02943 18.7502 10 18.75C13.2018 18.7575 16.1512 17.0127 17.6864 14.2029C19.2216 11.3931 19.0966 7.96853 17.3606 5.27812L16.4856 5.8325C16.3838 5.89805 16.2648 5.93198 16.1437 5.93L14.4888 5.91313L13.2506 6.40625C13.0564 6.48359 12.8364 6.45873 12.6644 6.34L11.4675 5.51438C11.3447 5.43003 11.256 5.30457 11.2175 5.16062L10.8556 3.7975L9.89313 2.78562L8.76813 1.98563C8.60881 1.87233 8.51168 1.69102 8.50562 1.49563L8.5025 1.38625C7.35961 1.58454 6.26797 2.00955 5.29187 2.63625L6.25 3.75L7.42688 5.22813C7.52364 5.34857 7.572 5.50079 7.5625 5.655L7.4475 7.65938C7.43075 7.94647 7.22026 8.18507 6.9375 8.2375L4.82188 8.62875L3.5825 10.0938L4.17375 11.3206L4.835 12.5031L6.4775 13.7769C6.73627 13.9769 6.79704 14.3426 6.61687 14.6156L5.47312 16.3506C5.40645 16.4513 5.31201 16.5306 5.20125 16.5788L4.57625 16.8531Z" fill="#FCFCFC"/>
</svg>
